<?xml version="1.0" encoding="UTF-8"?>
<svg width="292.3" height="25.5" version="1.1" xmlns="http://www.w3.org/2000/svg" xmlns:cc="http://creativecommons.org/ns#" xmlns:dc="http://purl.org/dc/elements/1.1/" xmlns:rdf="http://www.w3.org/1999/02/22-rdf-syntax-ns#">
 <metadata>
  <rdf:RDF>
   <cc:Work rdf:about="">
    <dc:format>image/svg+xml</dc:format>
    <dc:type rdf:resource="http://purl.org/dc/dcmitype/StillImage"/>
    <dc:title/>
   </cc:Work>
  </rdf:RDF>
 </metadata>
 <g transform="translate(-16.9,-20.1)">
  <path d="m28.8 21.7v0.2l-0.2 1.7c-0.1 0.5-0.4 0.6-1 0.6h-7v5.1h6.5c0.5 0 0.7 0.2 0.7 0.6v1.6c0 0.5-0.2 0.7-0.7 0.7h-6.5v7.8c0 0.5-0.2 0.7-0.7 0.7h-2.2c-0.6 0-0.8-0.1-0.8-0.8v-17.9c0-0.4 0.2-0.7 0.6-0.7h10.6c0.4 0 0.6 0.1 0.6 0.5zm8.3 1.8c0 1.1-1 1.8-1.9 1.8s-1.9-0.6-1.9-1.7 0.9-1.8 1.9-1.8 1.9 0.6 1.9 1.8zm-0.2 16.4c0 0.5-0.2 0.7-0.7 0.7h-2c-0.5 0-0.7-0.2-0.7-0.7v-12.2c0-0.5 0.3-0.6 0.7-0.6h2c0.4 0 0.7 0.1 0.7 0.6zm13.9-0.1c0 0.3-0.1 0.4-0.4 0.5-0.9 0.4-2 0.6-3.1 0.6-1.4 0-2.7-0.4-3.4-1.2-0.9-1-0.9-2.1-0.9-4.2v-6.2h-1.3c-0.5 0-0.6-0.1-0.6-0.7v-1.1c0-0.3 0.2-0.6 0.5-0.6h1.4v-3.1c0-0.5 0.3-0.6 0.7-0.7l2-0.3h0.1c0.4 0 0.5 0.2 0.5 0.6v3.4h3.2c0.3 0 0.5 0.1 0.5 0.5v1.3c0 0.3-0.2 0.5-0.6 0.5h-3.1v6.4c0 0.8 0.1 1.5 0.4 1.9s0.6 0.6 1.3 0.6 1.3-0.2 1.8-0.3c0.1 0 0.2-0.1 0.3-0.1 0.2 0 0.3 0.1 0.4 0.3l0.3 1.4v0.2zm17 0.3c0 0.3-0.2 0.5-0.6 0.5h-1.3c-1.5 0-2.1-0.7-2.3-1.7h-0.1c-0.7 1-2.5 2-4.1 2-3.9 0-5.7-3.2-5.7-6.9 0-4.8 2.9-7.4 6-7.4 1.5 0 2.9 0.7 3.6 1.6l0.1-0.8c0-0.3 0.3-0.5 0.6-0.5h2c0.4 0 0.6 0.2 0.6 0.6v9.7c0 0.4 0.1 0.7 0.2 0.8s0.2 0.1 0.3 0.1h0.2c0.3 0 0.5 0.1 0.5 0.5v1.3zm-4.6-3.8v-5.4c-0.6-0.8-1.7-1.4-2.8-1.4-1.7 0-3.2 1.5-3.2 4.4 0 2.4 0.9 4.3 3 4.3 1.4 0 2.5-1 3-1.9zm20.9 3.6c0 0.5-0.2 0.7-0.7 0.7h-2c-0.5 0-0.7-0.3-0.7-0.7v-7.6c0-1.5-0.4-2.6-2.1-2.6-1.1 0-2.4 0.6-3.3 1.3v8.9c0 0.5-0.2 0.7-0.7 0.7h-2c-0.4 0-0.7-0.2-0.7-0.7v-12.2c0-0.4 0.2-0.7 0.7-0.7h1.8c0.4 0 0.6 0.1 0.7 0.5v0.7c1.3-1 2.9-1.6 4.5-1.6 3.1 0 4.4 2 4.4 5v8.2zm17.2 0c0 0.5-0.3 0.7-0.6 0.7h-1.8c-0.4 0-0.6-0.2-0.7-0.6l-0.1-0.8c-0.8 0.9-2.4 1.7-3.8 1.7-4.1 0-5.9-3.2-5.9-7 0-3.9 2.2-7.3 6.1-7.3 1.3 0 2.6 0.5 3.4 1.3v-6.3c0-0.5 0.1-0.7 0.6-0.8l2.1-0.3h0.3c0.3 0 0.4 0.1 0.4 0.6zm-3.3-3.1v-6.1c-0.6-0.8-1.6-1.4-2.7-1.4-2.3 0-3.3 2.1-3.3 4.4s0.8 4.4 3.1 4.4c1 0 2.3-0.7 2.9-1.4zm22.4-1.8c0 4.5-3.7 5.7-7.6 5.7h-5.2c-0.6 0-0.7-0.2-0.7-0.8v-17.8c0-0.6 0.3-0.7 0.8-0.7h4.2c4.5 0 7 1.4 7 4.7 0 2-1.1 3.7-3.2 4.1 2.7 0.2 4.7 2 4.7 4.8zm-5.1-8.6c0-1.8-1.4-2.4-3.4-2.4h-1.6v5.2h1.5c2 0 3.5-0.5 3.5-2.8zm1.4 8.5c0-1.3-0.6-2.2-1.5-2.6s-1.8-0.5-3-0.5h-1.8v6.1h2.1c1 0 1.9-0.1 2.6-0.4 1-0.4 1.6-1.3 1.6-2.6zm20.1-1.1c0 0.7-0.2 0.8-0.9 0.8h-8.2c0.2 2.2 1.8 3.6 4 3.6 1.2 0 2.4-0.3 3.4-0.7 0.1 0 0.2-0.1 0.3-0.1 0.2 0 0.3 0.1 0.4 0.3l0.4 1.4c0 0.1 0.1 0.3 0.1 0.3 0 0.2-0.1 0.3-0.4 0.5-1.4 0.6-3.2 0.9-4.7 0.9-4.4 0-7-2.8-7-7.2 0-4.2 2.8-7.1 6.9-7.1 1.7 0 3.1 0.6 4.1 1.7 1.3 1.3 1.7 3.1 1.7 5v0.4zm-3.3-1.4v-0.3c-0.1-1.5-0.9-2.8-2.6-2.8-1.8 0-2.9 1.5-3.1 3.1zm20.7 7.7c0 0.3-0.2 0.5-0.6 0.5h-1.3c-1.5 0-2.1-0.7-2.3-1.7h-0.1c-0.7 1-2.5 2-4.1 2-3.9 0-5.7-3.2-5.7-6.9 0-4.8 2.9-7.4 6-7.4 1.5 0 2.9 0.7 3.6 1.6l0.1-0.8c0-0.3 0.3-0.5 0.6-0.5h2c0.4 0 0.6 0.2 0.6 0.6v9.7c0 0.4 0.1 0.7 0.2 0.8s0.2 0.1 0.3 0.1h0.2c0.3 0 0.5 0.1 0.5 0.5v1.3zm-4.6-3.8v-5.4c-0.6-0.8-1.7-1.4-2.8-1.4-1.7 0-3.2 1.5-3.2 4.4 0 2.4 0.9 4.3 3 4.3 1.4 0 2.5-1 3-1.9zm20.8 3.5c0 0.6-0.2 0.8-0.7 0.8h-1.8c-0.4 0-0.6-0.2-0.7-0.6v-0.7c-1.3 1-2.8 1.6-4.5 1.6-3.1 0-4.4-2-4.4-5v-8.3c0-0.5 0.3-0.6 0.7-0.6h2c0.4 0 0.7 0.1 0.7 0.6v7.7c0 1.5 0.4 2.6 2.1 2.6 1.1 0 2.4-0.6 3.2-1.3v-8.9c0-0.5 0.3-0.6 0.7-0.6h2c0.4 0 0.7 0.1 0.7 0.6v12.2zm13.6 0c0 0.3-0.1 0.4-0.4 0.5-0.9 0.4-2 0.6-3.1 0.6-1.4 0-2.7-0.4-3.4-1.2-0.9-1-0.9-2.1-0.9-4.2v-6.2h-1.3c-0.5 0-0.6-0.1-0.6-0.7v-1.1c0-0.3 0.2-0.6 0.5-0.6h1.4v-3.1c0-0.5 0.3-0.6 0.7-0.7l2-0.3h0.1c0.4 0 0.5 0.2 0.5 0.6v3.4h3.2c0.3 0 0.5 0.1 0.5 0.5v1.3c0 0.3-0.2 0.5-0.6 0.5h-3.1v6.4c0 0.8 0.1 1.5 0.4 1.9s0.6 0.6 1.3 0.6 1.3-0.2 1.8-0.3c0.1 0 0.2-0.1 0.3-0.1 0.2 0 0.3 0.1 0.4 0.3l0.3 1.4v0.2zm7.6-16.3c0 1.1-1 1.8-1.9 1.8s-1.9-0.6-1.9-1.7 0.9-1.8 1.9-1.8 1.9 0.6 1.9 1.8zm-0.1 16.4c0 0.5-0.2 0.7-0.7 0.7h-2c-0.5 0-0.7-0.2-0.7-0.7v-12.2c0-0.5 0.3-0.6 0.7-0.6h2c0.4 0 0.7 0.1 0.7 0.6zm14.4-18.5c0 0.1 0 0.3-0.1 0.5l-0.2 1.2c-0.1 0.3-0.1 0.4-0.4 0.4-0.1 0-0.2 0-0.3-0.1-0.6-0.2-1.2-0.4-1.9-0.4-1.7 0-2 1.1-2 2.7v1.3h3.1c0.3 0 0.6 0.1 0.6 0.5v1.3c0 0.4-0.2 0.5-0.6 0.5h-3.1v10.5c0 0.5-0.2 0.8-0.7 0.8h-2c-0.5 0-0.7-0.3-0.7-0.7v-10.5h-1.5c-0.5 0-0.6-0.1-0.6-0.7v-1.1c0-0.3 0.2-0.6 0.5-0.6h1.6v-0.8c0-0.9 0.1-1.7 0.2-2.3 0.4-2.4 1.9-3.8 4.7-3.8 0.9 0 2.2 0.2 3 0.6 0.3 0.1 0.4 0.3 0.4 0.5zm14.9 18.4c0 0.6-0.2 0.8-0.7 0.8h-1.8c-0.4 0-0.6-0.2-0.7-0.6v-0.7c-1.3 1-2.8 1.6-4.5 1.6-3.1 0-4.4-2-4.4-5v-8.3c0-0.5 0.3-0.6 0.7-0.6h2c0.4 0 0.7 0.1 0.7 0.6v7.7c0 1.5 0.4 2.6 2.1 2.6 1.1 0 2.4-0.6 3.2-1.3v-8.9c0-0.5 0.3-0.6 0.7-0.6h2c0.4 0 0.7 0.1 0.7 0.6v12.2zm8.5 0.1c0 0.5-0.2 0.7-0.6 0.7h-2.1c-0.4 0-0.6-0.2-0.6-0.7v-18.4c0-0.5 0.2-0.6 0.6-0.7l2-0.3h0.2c0.3 0 0.6 0.2 0.6 0.6v18.7z" fill="#000222"/>
  <path d="m238.6 31q0-0.5 0.1-0.8t0.4-0.6 0.9-0.2q0.1 0 0.3 0t0.4 0.1 0.3 0.2 0.1 0.3v1.5q0.5-0.6 1.2-0.9t1.4-0.3q0.6 0 1.2 0.3t1.1 0.7 0.9 1 0.6 1.1q0.1-0.5 0.2-1.2t0.4-1.4 0.7-1.1 1.2-0.5q0.8 0 1.3 0.6t0.9 1.5 0.5 2 0.3 2.2 0.1 2v1.5q0 0.2-0.1 0.3t-0.3 0.2-0.4 0.1-0.3 0q-0.4 0-0.8-0.1t-0.3-0.7v-1.2t0-1.6-0.1-1.7-0.2-1.6-0.3-1.1-0.4-0.4q-0.3 0-0.5 0.4t-0.3 1-0.2 1.2-0.2 1.2-0.3 1-0.6 0.4-0.7-0.4-0.6-0.9-0.6-1.2-0.6-1.2q-0.4-0.6-0.8-0.9t-0.8-0.3h-0.1q-0.6 0-1 0.4t-0.5 1-0.2 1.3 0 1.2q0 0.5 0.1 1.1 0.1 0.4 0.1 0.8 0 0.2 0 0.4 0 0.6-0.3 1t-1 0.4q-0.3 0-0.7-0.1t-0.5-0.4q-0.3-0.6-0.5-1.4t-0.2-1.8-0.1-1.8 0-1.5q0-0.5 0-0.9zm17 3.7q0-0.8 0.2-1.6t0.6-1.5 1.1-1.1 1.6-0.4q0.7 0 1.5 0.2t1.4 0.7 1 1.1 0.4 1.4q0 1-0.3 1.8t-1 1.5-1.5 1.1-1.8 0.4q-0.8 0-1.4-0.3t-1-0.8-0.6-1.2-0.2-1.4zm2-0.1q0 0.2 0.1 0.7t0.2 0.9 0.4 0.8 0.6 0.3q0.7-0.1 1.2-0.5t0.8-1 0.4-1.2 0.1-1.2q0-0.8-0.3-1.3t-1-0.8l-0.3-0.1q-0.1-0.1-0.3-0.1t-0.4-0.3q-0.5 0.2-0.8 0.5t-0.4 0.7-0.2 1 0 1.4zm8.4-3.6q0-0.5 0.1-0.8t0.4-0.6 0.9-0.2q0.1 0 0.3 0t0.4 0.1 0.3 0.2 0.1 0.3v1.5q0.5-0.6 1.2-0.9t1.4-0.3q0.6 0 1.2 0.3t1.1 0.7 0.9 1 0.6 1.1q0.1-0.5 0.2-1.2t0.4-1.4 0.7-1.1 1.2-0.5q0.8 0 1.3 0.6t0.9 1.5 0.5 2 0.3 2.2 0.1 2v1.5q0 0.2-0.1 0.3t-0.3 0.2-0.4 0.1-0.3 0q-0.4 0-0.8-0.1t-0.3-0.7v-1.2t0-1.6-0.1-1.7-0.2-1.6-0.3-1.1-0.4-0.4q-0.3 0-0.5 0.4t-0.3 1-0.2 1.2-0.2 1.2-0.3 1-0.6 0.4-0.7-0.4-0.6-0.9-0.6-1.2-0.6-1.2q-0.4-0.6-0.8-0.9t-0.8-0.3h-0.1q-0.6 0-1 0.4t-0.5 1-0.2 1.3 0 1.2q0 0.5 0.1 1.1 0.1 0.4 0.1 0.8 0 0.2 0 0.4 0 0.6-0.3 1t-1 0.4q-0.3 0-0.7-0.1t-0.5-0.4q-0.3-0.6-0.5-1.4t-0.2-1.8-0.1-1.8 0-1.5q0-0.5 0-0.9zm17.2 0q0-0.5 0.1-0.8t0.4-0.6 0.9-0.2q0.1 0 0.3 0t0.4 0.1 0.3 0.2 0.1 0.3v1.5q0.5-0.6 1.2-0.9t1.4-0.3q0.6 0 1.2 0.3t1.1 0.7 0.9 1 0.6 1.1q0.1-0.5 0.2-1.2t0.4-1.4 0.7-1.1 1.2-0.5q0.8 0 1.3 0.6t0.9 1.5 0.5 2 0.3 2.2 0.1 2v1.5q0 0.2-0.1 0.3t-0.3 0.2-0.4 0.1-0.3 0q-0.4 0-0.8-0.1t-0.3-0.7v-1.2t0-1.6-0.1-1.7-0.2-1.6-0.3-1.1-0.4-0.4q-0.3 0-0.5 0.4t-0.3 1-0.2 1.2-0.2 1.2-0.3 1-0.6 0.4-0.7-0.4-0.6-0.9-0.6-1.2-0.6-1.2q-0.4-0.6-0.8-0.9t-0.8-0.3h-0.1q-0.6 0-1 0.4t-0.5 1-0.2 1.3 0 1.2q0 0.5 0.1 1.1 0.1 0.4 0.1 0.8 0 0.2 0 0.4 0 0.6-0.3 1t-1 0.4q-0.3 0-0.7-0.1t-0.5-0.4q-0.3-0.6-0.5-1.4t-0.2-1.8-0.1-1.8 0-1.5q0-0.5 0-0.9zm17.3 0.4q0-0.4 0.2-0.5t0.6-0.1q0.6 0 0.9 0.2t0.3 0.7q0 0.6 0.1 1.6t0.3 1.9 0.4 1.6 0.5 0.7q0.5 0 0.9-0.8t0.7-1.9 0.5-2.4 0.3-2.3q0.1-0.6 0.3-0.8t0.8-0.3q0.6 0 0.9 0.5t0.4 1.3q0.1 0.7 0.1 1.4v0.7q0 0.5 0 0.9l0.4 8.4 0.1 1.4q0 0.2 0 0.4t0 0.4q0 0.8-0.3 1t-1.1 0.2q-0.2 0-0.4 0t-0.5-0.1-0.4-0.2-0.2-0.4l0.1-0.1q0.1-0.8 0.1-1.7v-0.3q0-1.1-0.1-2.2t-0.1-2.2-0.1-2.1q-0.2 0.4-0.4 0.9t-0.6 0.8-0.8 0.6-1 0.2q-0.8 0-1.3-0.4t-0.8-1.1-0.4-1.5-0.2-1.6-0.1-1.6-0.1-1.2z" fill="#2892d7"/>
 </g>
</svg>
