<svg xmlns="http://www.w3.org/2000/svg" width="315" height="51"><path d="M28.8 21.7l0 0.2 -0.2 1.7c-0.1 0.5-0.4 0.6-1 0.6l-7 0 0 5.1 6.5 0c0.5 0 0.7 0.2 0.7 0.6l0 1.6c0 0.5-0.2 0.7-0.7 0.7l-6.5 0 0 7.8c0 0.5-0.2 0.7-0.7 0.7l-2.2 0c-0.6 0-0.8-0.1-0.8-0.8l0-17.9c0-0.4 0.2-0.7 0.6-0.7l10.6 0c0.4 0 0.6 0.1 0.6 0.5zM37.1 23.5c0 1.1-1 1.8-1.9 1.8s-1.9-0.6-1.9-1.7 0.9-1.8 1.9-1.8c1 0 1.9 0.6 1.9 1.8zM36.9 39.9c0 0.5-0.2 0.7-0.7 0.7l-2 0c-0.5 0-0.7-0.2-0.7-0.7l0-12.2c0-0.5 0.3-0.6 0.7-0.6l2 0c0.4 0 0.7 0.1 0.7 0.6l0 12.2zM50.8 39.8c0 0.3-0.1 0.4-0.4 0.5 -0.9 0.4-2 0.6-3.1 0.6 -1.4 0-2.7-0.4-3.4-1.2 -0.9-1-0.9-2.1-0.9-4.2l0-6.2 -1.3 0c-0.5 0-0.6-0.1-0.6-0.7l0-1.1c0-0.3 0.2-0.6 0.5-0.6l1.4 0 0-3.1c0-0.5 0.3-0.6 0.7-0.7l2-0.3 0.1 0c0.4 0 0.5 0.2 0.5 0.6l0 3.4 3.2 0c0.3 0 0.5 0.1 0.5 0.5l0 1.3c0 0.3-0.2 0.5-0.6 0.5l-3.1 0 0 6.4c0 0.8 0.1 1.5 0.4 1.9 0.3 0.4 0.6 0.6 1.3 0.6 0.7 0 1.3-0.2 1.8-0.3 0.1 0 0.2-0.1 0.3-0.1 0.2 0 0.3 0.1 0.4 0.3l0.3 1.4c0 0.1 0 0.1 0 0.2zM67.8 40.1c0 0.3-0.2 0.5-0.6 0.5l-1.3 0c-1.5 0-2.1-0.7-2.3-1.7l-0.1 0c-0.7 1-2.5 2-4.1 2 -3.9 0-5.7-3.2-5.7-6.9 0-4.8 2.9-7.4 6-7.4 1.5 0 2.9 0.7 3.6 1.6l0.1-0.8c0-0.3 0.3-0.5 0.6-0.5l2 0c0.4 0 0.6 0.2 0.6 0.6l0 9.7c0 0.4 0.1 0.7 0.2 0.8 0.1 0.1 0.2 0.1 0.3 0.1l0.2 0c0.3 0 0.5 0.1 0.5 0.5l0 1.3zM63.2 36.3l0-5.4c-0.6-0.8-1.7-1.4-2.8-1.4 -1.7 0-3.2 1.5-3.2 4.4 0 2.4 0.9 4.3 3 4.3 1.4 0 2.5-1 3-1.9zM84.1 39.9c0 0.5-0.2 0.7-0.7 0.7l-2 0c-0.5 0-0.7-0.3-0.7-0.7l0-7.6c0-1.5-0.4-2.6-2.1-2.6 -1.1 0-2.4 0.6-3.3 1.3l0 8.9c0 0.5-0.2 0.7-0.7 0.7l-2 0c-0.4 0-0.7-0.2-0.7-0.7l0-12.2c0-0.4 0.2-0.7 0.7-0.7l1.8 0c0.4 0 0.6 0.1 0.7 0.5l0 0.7c1.3-1 2.9-1.6 4.5-1.6 3.1 0 4.4 2 4.4 5l0 8.2zM101.3 39.9c0 0.5-0.3 0.7-0.6 0.7l-1.8 0c-0.4 0-0.6-0.2-0.7-0.6l-0.1-0.8c-0.8 0.9-2.4 1.7-3.8 1.7 -4.1 0-5.9-3.2-5.9-7 0-3.9 2.2-7.3 6.1-7.3 1.3 0 2.6 0.5 3.4 1.3l0-6.3c0-0.5 0.1-0.7 0.6-0.8l2.1-0.3c0 0 0.3 0 0.3 0 0.3 0 0.4 0.1 0.4 0.6l0 18.8zM98 36.8l0-6.1c-0.6-0.8-1.6-1.4-2.7-1.4 -2.3 0-3.3 2.1-3.3 4.4s0.8 4.4 3.1 4.4c1 0 2.3-0.7 2.9-1.4zM120.4 35c0 4.5-3.7 5.7-7.6 5.7l-5.2 0c-0.6 0-0.7-0.2-0.7-0.8l0-17.8c0-0.6 0.3-0.7 0.8-0.7l4.2 0c4.5 0 7 1.4 7 4.7 0 2-1.1 3.7-3.2 4.1l0 0c2.7 0.2 4.7 2 4.7 4.8zM115.3 26.4c0-1.8-1.4-2.4-3.4-2.4l-1.6 0 0 5.2 1.5 0c2 0 3.5-0.5 3.5-2.8zM116.7 34.9c0-1.3-0.6-2.2-1.5-2.6 -0.9-0.4-1.8-0.5-3-0.5l-1.8 0 0 6.1 2.1 0c1 0 1.9-0.1 2.6-0.4 1-0.4 1.6-1.3 1.6-2.6zM136.8 33.8c0 0.7-0.2 0.8-0.9 0.8l-8.2 0c0.2 2.2 1.8 3.6 4 3.6 1.2 0 2.4-0.3 3.4-0.7 0.1 0 0.2-0.1 0.3-0.1 0.2 0 0.3 0.1 0.4 0.3l0.4 1.4c0 0.1 0.1 0.3 0.1 0.3 0 0.2-0.1 0.3-0.4 0.5 -1.4 0.6-3.2 0.9-4.7 0.9 -4.4 0-7-2.8-7-7.2 0-4.2 2.8-7.1 6.9-7.1 1.7 0 3.1 0.6 4.1 1.7 1.3 1.3 1.7 3.1 1.7 5l0 0.4zM133.5 32.4l0-0.3c-0.1-1.5-0.9-2.8-2.6-2.8 -1.8 0-2.9 1.5-3.1 3.1l5.7 0zM154.2 40.1c0 0.3-0.2 0.5-0.6 0.5l-1.3 0c-1.5 0-2.1-0.7-2.3-1.7l-0.1 0c-0.7 1-2.5 2-4.1 2 -3.9 0-5.7-3.2-5.7-6.9 0-4.8 2.9-7.4 6-7.4 1.5 0 2.9 0.7 3.6 1.6l0.1-0.8c0-0.3 0.3-0.5 0.6-0.5l2 0c0.4 0 0.6 0.2 0.6 0.6l0 9.7c0 0.4 0.1 0.7 0.2 0.8 0.1 0.1 0.2 0.1 0.3 0.1l0.2 0c0.3 0 0.5 0.1 0.5 0.5l0 1.3zM149.6 36.3l0-5.4c-0.6-0.8-1.7-1.4-2.8-1.4 -1.7 0-3.2 1.5-3.2 4.4 0 2.4 0.9 4.3 3 4.3 1.4 0 2.5-1 3-1.9zM170.4 39.8c0 0.6-0.2 0.8-0.7 0.8l-1.8 0c-0.4 0-0.6-0.2-0.7-0.6l0-0.7c-1.3 1-2.8 1.6-4.5 1.6 -3.1 0-4.4-2-4.4-5l0-8.3c0-0.5 0.3-0.6 0.7-0.6l2 0c0.4 0 0.7 0.1 0.7 0.6l0 7.7c0 1.5 0.4 2.6 2.1 2.6 1.1 0 2.4-0.6 3.2-1.3l0-8.9c0-0.5 0.3-0.6 0.7-0.6l2 0c0.4 0 0.7 0.1 0.7 0.6l0 12.2zM184 39.8c0 0.3-0.1 0.4-0.4 0.5 -0.9 0.4-2 0.6-3.1 0.6 -1.4 0-2.7-0.4-3.4-1.2 -0.9-1-0.9-2.1-0.9-4.2l0-6.2 -1.3 0c-0.5 0-0.6-0.1-0.6-0.7l0-1.1c0-0.3 0.2-0.6 0.5-0.6l1.4 0 0-3.1c0-0.5 0.3-0.6 0.7-0.7l2-0.3 0.1 0c0.4 0 0.5 0.2 0.5 0.6l0 3.4 3.2 0c0.3 0 0.5 0.1 0.5 0.5l0 1.3c0 0.3-0.2 0.5-0.6 0.5l-3.1 0 0 6.4c0 0.8 0.1 1.5 0.4 1.9 0.3 0.4 0.6 0.6 1.3 0.6 0.7 0 1.3-0.2 1.8-0.3 0.1 0 0.2-0.1 0.3-0.1 0.2 0 0.3 0.1 0.4 0.3l0.3 1.4c0 0.1 0 0.1 0 0.2zM191.6 23.5c0 1.1-1 1.8-1.9 1.8s-1.9-0.6-1.9-1.7 0.9-1.8 1.9-1.8c1 0 1.9 0.6 1.9 1.8zM191.5 39.9c0 0.5-0.2 0.7-0.7 0.7l-2 0c-0.5 0-0.7-0.2-0.7-0.7l0-12.2c0-0.5 0.3-0.6 0.7-0.6l2 0c0.4 0 0.7 0.1 0.7 0.6l0 12.2zM205.9 21.4c0 0.1 0 0.3-0.1 0.5l-0.2 1.2c-0.1 0.3-0.1 0.4-0.4 0.4 -0.1 0-0.2 0-0.3-0.1 -0.6-0.2-1.2-0.4-1.9-0.4 -1.7 0-2 1.1-2 2.7l0 1.3 3.1 0c0.3 0 0.6 0.1 0.6 0.5l0 1.3c0 0.4-0.2 0.5-0.6 0.5l-3.1 0 0 10.5c0 0.5-0.2 0.8-0.7 0.8l-2 0c-0.5 0-0.7-0.3-0.7-0.7l0-10.5 -1.5 0c-0.5 0-0.6-0.1-0.6-0.7l0-1.1c0-0.3 0.2-0.6 0.5-0.6l1.6 0 0-0.8c0-0.9 0.1-1.7 0.2-2.3 0.4-2.4 1.9-3.8 4.7-3.8 0.9 0 2.2 0.2 3 0.6 0.3 0.1 0.4 0.3 0.4 0.5zM220.8 39.8c0 0.6-0.2 0.8-0.7 0.8l-1.8 0c-0.4 0-0.6-0.2-0.7-0.6l0-0.7c-1.3 1-2.8 1.6-4.5 1.6 -3.1 0-4.4-2-4.4-5l0-8.3c0-0.5 0.3-0.6 0.7-0.6l2 0c0.4 0 0.7 0.1 0.7 0.6l0 7.7c0 1.5 0.4 2.6 2.1 2.6 1.1 0 2.4-0.6 3.2-1.3l0-8.9c0-0.5 0.3-0.6 0.7-0.6l2 0c0.4 0 0.7 0.1 0.7 0.6l0 12.2zM229.3 39.9c0 0.5-0.2 0.7-0.6 0.7l-2.1 0c-0.4 0-0.6-0.2-0.6-0.7l0-18.4c0-0.5 0.2-0.6 0.6-0.7l2-0.3c0.1 0 0.1 0 0.2 0 0.3 0 0.6 0.2 0.6 0.6l0 18.7z" fill="#"/><path d="M238.6 31q0-0.5 0.1-0.8t0.4-0.6 0.9-0.2q0.1 0 0.3 0t0.4 0.1 0.3 0.2 0.1 0.3l0 1.5q0.5-0.6 1.2-0.9t1.4-0.3q0.6 0 1.2 0.3t1.1 0.7 0.9 1 0.6 1.1q0.1-0.5 0.2-1.2t0.4-1.4 0.7-1.1 1.2-0.5q0.8 0 1.3 0.6t0.9 1.5 0.5 2 0.3 2.2 0.1 2l0 1.5q0 0.2-0.1 0.3t-0.3 0.2 -0.4 0.1 -0.3 0q-0.4 0-0.8-0.1t-0.3-0.7l0-1.2t0-1.6 -0.1-1.7 -0.2-1.6 -0.3-1.1 -0.4-0.4q-0.3 0-0.5 0.4t-0.3 1 -0.2 1.2 -0.2 1.2 -0.3 1 -0.6 0.4q-0.4 0-0.7-0.4t-0.6-0.9 -0.6-1.2 -0.6-1.2q-0.4-0.6-0.8-0.9 -0.4-0.3-0.8-0.3l-0.1 0q-0.6 0-1 0.4t-0.5 1 -0.2 1.3 0 1.2q0 0.5 0.1 1.1 0.1 0.4 0.1 0.8 0 0.2 0 0.4 0 0.6-0.3 1t-1 0.4q-0.3 0-0.7-0.1t-0.5-0.4q-0.3-0.6-0.5-1.4t-0.2-1.8 -0.1-1.8 0-1.5q0-0.5 0-0.9zM255.6 34.7q0-0.8 0.2-1.6t0.6-1.5 1.1-1.1 1.6-0.4q0.7 0 1.5 0.2t1.4 0.7 1 1.1 0.4 1.4q0 1-0.3 1.8t-1 1.5 -1.5 1.1 -1.8 0.4q-0.8 0-1.4-0.3t-1-0.8 -0.6-1.2 -0.2-1.4zM257.6 34.6q0 0.2 0.1 0.7t0.2 0.9 0.4 0.8 0.6 0.3q0.7-0.1 1.2-0.5t0.8-1 0.4-1.2 0.1-1.2q0-0.8-0.3-1.3t-1-0.8q0 0 0 0t0 0l-0.3-0.1q-0.1-0.1-0.3-0.1t-0.4-0.3q-0.5 0.2-0.8 0.5t-0.4 0.7 -0.2 1 0 1.4zM266 31q0-0.5 0.1-0.8t0.4-0.6 0.9-0.2q0.1 0 0.3 0t0.4 0.1 0.3 0.2 0.1 0.3l0 1.5q0.5-0.6 1.2-0.9t1.4-0.3q0.6 0 1.2 0.3t1.1 0.7 0.9 1 0.6 1.1q0.1-0.5 0.2-1.2t0.4-1.4 0.7-1.1 1.2-0.5q0.8 0 1.3 0.6t0.9 1.5 0.5 2 0.3 2.2 0.1 2l0 1.5q0 0.2-0.1 0.3t-0.3 0.2 -0.4 0.1 -0.3 0q-0.4 0-0.8-0.1t-0.3-0.7l0-1.2t0-1.6 -0.1-1.7 -0.2-1.6 -0.3-1.1 -0.4-0.4q-0.3 0-0.5 0.4t-0.3 1 -0.2 1.2 -0.2 1.2 -0.3 1 -0.6 0.4q-0.4 0-0.7-0.4t-0.6-0.9 -0.6-1.2 -0.6-1.2q-0.4-0.6-0.8-0.9 -0.4-0.3-0.8-0.3l-0.1 0q-0.6 0-1 0.4t-0.5 1 -0.2 1.3 0 1.2q0 0.5 0.1 1.1 0.1 0.4 0.1 0.8 0 0.2 0 0.4 0 0.6-0.3 1t-1 0.4q-0.3 0-0.7-0.1t-0.5-0.4q-0.3-0.6-0.5-1.4t-0.2-1.8 -0.1-1.8 0-1.5q0-0.5 0-0.9zM283.2 31q0-0.5 0.1-0.8t0.4-0.6 0.9-0.2q0.1 0 0.3 0t0.4 0.1 0.3 0.2 0.1 0.3l0 1.5q0.5-0.6 1.2-0.9t1.4-0.3q0.6 0 1.2 0.3t1.1 0.7 0.9 1 0.6 1.1q0.1-0.5 0.2-1.2t0.4-1.4 0.7-1.1 1.2-0.5q0.8 0 1.3 0.6t0.9 1.5 0.5 2 0.3 2.2 0.1 2l0 1.5q0 0.2-0.1 0.3t-0.3 0.2 -0.4 0.1 -0.3 0q-0.4 0-0.8-0.1t-0.3-0.7l0-1.2t0-1.6 -0.1-1.7 -0.2-1.6 -0.3-1.1 -0.4-0.4q-0.3 0-0.5 0.4t-0.3 1 -0.2 1.2 -0.2 1.2 -0.3 1 -0.6 0.4q-0.4 0-0.7-0.4t-0.6-0.9 -0.6-1.2 -0.6-1.2q-0.4-0.6-0.8-0.9 -0.4-0.3-0.8-0.3l-0.1 0q-0.6 0-1 0.4t-0.5 1 -0.2 1.3 0 1.2q0 0.5 0.1 1.1 0.1 0.4 0.1 0.8 0 0.2 0 0.4 0 0.6-0.3 1t-1 0.4q-0.3 0-0.7-0.1t-0.5-0.4q-0.3-0.6-0.5-1.4t-0.2-1.8 -0.1-1.8 0-1.5q0-0.5 0-0.9zM300.5 31.4q0-0.4 0.2-0.5t0.6-0.1q0.6 0 0.9 0.2t0.3 0.7q0 0.6 0.1 1.6t0.3 1.9 0.4 1.6 0.5 0.7q0.5 0 0.9-0.8t0.7-1.9 0.5-2.4 0.3-2.3q0.1-0.6 0.3-0.8t0.8-0.3q0.6 0 0.9 0.5t0.4 1.3q0.1 0.7 0.1 1.4l0 0.2 0 0.5q0 0.5 0 0.9l0.4 8.4 0.1 1.4q0 0.2 0 0.4t0 0.4q0 0.8-0.3 1t-1.1 0.2q-0.2 0-0.4 0t-0.5-0.1 -0.4-0.2 -0.2-0.4l0.1-0.1q0.1-0.8 0.1-1.7l0-0.3q0-1.1-0.1-2.2t-0.1-2.2 -0.1-2.1q-0.2 0.4-0.4 0.9t-0.6 0.8 -0.8 0.6 -1 0.2q-0.8 0-1.3-0.4t-0.8-1.1 -0.4-1.5 -0.2-1.6 -0.1-1.6 -0.1-1.2z" fill="#d13885"/></svg>